<svg xmlns="http://www.w3.org/2000/svg" width="100" height="50" viewBox="0 0 100 50" fill="none"><rect width="100" height="50" fill="white"></rect><path d="M78.6425 30.9259C77.0701 30.9259 75.6793 29.3828 75.6793 25.3086C75.6793 20.8025 78.3401 14.5679 82.4525 14.5679C84.3272 14.5679 85.0529 16.4815 85.0529 18.9506C85.1134 23.7654 82.2105 30.9259 78.6425 30.9259ZM62.8062 27.1151C62.8006 27.1453 62.7996 27.175 62.7895 27.2039C62.757 27.2965 62.7091 27.3896 62.6541 27.4708C61.5669 29.0706 59.984 30.1851 58.7461 30.1851C57.5365 30.1851 56.0851 28.8889 56.0851 26.5431C56.0851 22.2222 58.3226 14.5061 63.1607 14.5061C63.6446 14.5061 64.1284 14.5679 64.6121 14.7531C65.0709 14.8701 64.9316 15.5446 64.8455 16.0138L62.8062 27.1151ZM56.2061 45.8643C55.2989 45.8643 54.0894 45.1235 54.0894 43.7036C54.0894 41.2962 56.5084 39.5679 60.016 37.6543C60.3789 37.4691 60.8021 37.7777 60.6812 38.2099C59.4112 43.2716 58.3831 45.8643 56.2061 45.8643ZM34.6769 14.6296C35.5235 14.6296 35.8864 15.5556 35.8864 16.4198C35.7654 19.321 33.4069 22.2222 29.5969 24.8765C29.234 25.1235 28.8106 24.8148 28.8711 24.3828C29.2945 20.8641 30.8669 14.6296 34.6769 14.6296ZM24.0936 3.0247C24.5774 3.0247 25.0007 3.58025 25.0007 4.32099C25.0007 5.67901 22.4003 11.7901 19.0741 18.395C18.8322 18.8889 18.046 18.642 18.167 18.0864C19.8603 9.75306 22.7631 3.0247 24.0936 3.0247ZM81.4849 10.9877C74.6511 10.9877 69.8735 19.753 69.8735 26.7284C69.8735 27.5926 69.934 28.4568 70.1154 29.2593C70.2298 29.6093 69.7814 29.8567 69.4795 30.0642C68.8851 30.4726 68.2605 30.9039 67.6359 31.2963C67.2731 31.4815 66.8497 31.2345 66.9102 30.8025C66.9102 30.6172 66.9706 30.3704 67.0311 30.1234L70.3574 12.1605C70.4816 11.78 69.9482 11.5484 69.5736 11.415C69.2621 11.3042 68.914 11.2345 68.5431 11.2345C67.6964 11.2345 66.7893 11.5432 66.1241 12.2222C65.9426 12.4074 65.6402 12.4074 65.4589 12.284C64.4912 11.4815 63.3421 11.1111 61.7699 11.1111C56.2666 11.1111 51.2471 19.321 51.1866 26.9135C51.1866 27.4691 51.2471 28.0864 51.3076 28.7654C51.3076 29.1248 50.9846 29.3705 50.6842 29.5637C49.6766 30.2127 48.4884 30.679 47.4371 30.679C46.2881 30.679 45.5624 29.8766 46.1066 27.2839L48.5256 14.8765C48.5861 14.6296 48.7676 14.5061 49.0095 14.5061H52.4566C53.7266 14.5061 54.3919 13.5803 54.3919 12.284C54.3919 12.037 54.1499 11.7901 53.908 11.7901H49.7956C49.4934 11.7901 49.2514 11.4815 49.3119 11.1729L50.4609 5.61728C50.5214 5.37036 50.4004 5.18519 50.219 5.06172C49.7351 4.81481 49.0699 4.62963 48.4048 4.62963C46.7719 4.62963 45.0786 5.4321 44.5949 7.53086L43.8086 11.2963C43.7481 11.5432 43.5666 11.6666 43.3249 11.6666H42.841C41.571 11.6666 40.9059 12.5926 40.9059 13.8889C40.9059 14.1358 41.1476 14.3827 41.3896 14.3827H42.5991C42.9015 14.3827 43.1434 14.6914 43.0829 15L40.7816 26.0224C40.7435 26.2045 40.7331 26.4108 40.6034 26.5431C38.6077 28.9506 35.342 30.8641 32.4392 30.8641C30.7531 30.8641 29.4584 30.1653 28.951 28.408C28.8318 27.9953 28.6992 27.4626 29.0526 27.2222C37.3377 22.4691 39.152 19.4445 39.2729 15.4321C39.3334 13.3333 38.4264 10.9877 34.5559 10.9877C27.4802 10.9877 23.6097 20.6172 23.3679 26.605C23.3679 27.3456 23.3679 28.0246 23.4284 28.642C23.4284 28.8271 23.3679 29.0124 23.1865 29.1359C21.9165 29.8766 20.465 30.3704 19.2556 30.3704C17.6832 30.3704 16.4132 29.4445 16.7761 27.0371C16.8365 26.5431 16.897 25.926 16.9575 25.4321C16.9575 25.3036 17.055 25.1891 17.1239 25.0811C22.8802 16.0685 27.4802 7.57041 27.4802 3.95061C27.5407 1.66668 25.8474 0 23.7308 0C17.8041 0 13.208 11.358 11.0914 28.0864C10.4866 32.9629 12.9661 34.9382 16.1108 34.9382C18.5903 34.9382 21.5536 33.8271 23.8517 31.9753C24.0936 31.7901 24.396 31.8519 24.5169 32.0988C25.7869 34.0124 27.8431 34.9382 30.2621 34.9382C33.2859 34.9382 36.4911 33.5185 39.2125 30.9259C39.5149 30.6172 39.9986 30.8025 39.9986 31.2345C40.1801 33.8889 41.7524 34.9382 43.8086 34.9382C46.3486 34.9382 49.1909 33.4569 51.3076 31.4815C51.5494 31.2345 51.9124 31.358 52.0938 31.6666C52.9404 33.5185 54.3314 34.9382 56.5689 34.9382C58.1414 34.9382 59.7136 33.9506 61.0441 32.4074C61.4069 32.037 62.0118 32.3456 61.8908 32.8395C61.8516 33.079 61.7871 33.3188 61.7303 33.5584C61.6688 33.8168 61.6421 34.1393 61.407 34.2593C57.9599 36.111 51.4285 39.321 51.4285 44.6296C51.4285 47.4691 53.7266 50 56.6899 50C63.1772 50 64.3344 43.3635 66.0987 35.0331C66.1555 34.7658 66.1845 34.4445 66.4264 34.321C67.8779 33.5185 69.3293 32.5309 70.4179 31.7284C70.6598 31.5432 70.9621 31.6049 71.083 31.8519C72.1111 33.7036 73.9254 34.8765 76.5259 34.8765C83.6015 34.8765 88.5 26.1111 88.5 19.2593C88.5 14.7531 86.4438 10.9877 81.4849 10.9877Z" fill="#FF3F55"></path></svg>